<svg width="412" height="232" viewBox="0 0 412 232" fill="none" xmlns="http://www.w3.org/2000/svg">
<path fill-rule="evenodd" clip-rule="evenodd" d="M30.4637 146.718L30.459 146.714C22.9626 140.513 16.8415 133.009 12.0953 124.351C7.18911 115.4 4.28072 105.682 3.29995 95.3652L3.29921 95.3574C2.32301 85.0347 3.35864 74.9383 6.50668 65.222C9.54884 55.8326 14.1523 47.3185 20.3465 39.8247L20.3503 39.8201C26.5514 32.3236 34.055 26.2026 42.7135 21.4564C51.6638 16.5501 61.382 13.6418 71.6988 12.661L71.7067 12.6602C82.0294 11.684 92.1258 12.7197 101.842 15.8677C111.231 18.9099 119.746 23.5134 127.239 29.7075L127.244 29.7114C134.739 35.9109 140.861 43.412 145.61 52.0673C150.524 61.0214 153.431 70.7455 154.404 81.0677C154.404 81.0681 154.404 81.0685 154.404 81.0688C154.404 81.0708 154.404 81.0728 154.404 81.0749L155.221 89.7132C156.161 99.6501 153.434 108.997 147.132 116.814C141.903 123.302 135.11 127.555 127.299 129.408C128.61 131.941 129.402 134.706 129.668 137.567C130.203 143.27 128.616 148.994 124.751 153.666C120.883 158.342 115.548 160.978 109.828 161.511C109.822 161.512 109.817 161.512 109.811 161.513L85.9963 163.765C75.6736 164.741 65.5772 163.705 55.861 160.557C46.4716 157.515 37.9575 152.912 30.4637 146.718ZM113.738 139.054C113.582 137.368 112.878 136.007 111.625 134.971C110.379 133.94 108.916 133.5 107.238 133.653C107.229 133.654 107.22 133.655 107.212 133.656L83.3623 135.911C76.6406 136.547 70.3267 135.956 64.4206 134.139C58.6263 132.356 53.2245 129.392 48.2151 125.249C48.2139 125.248 48.2128 125.247 48.2116 125.246C43.2054 121.104 39.2841 116.356 36.4475 111.002C33.5537 105.54 31.7889 99.447 31.153 92.7233C31.1529 92.7213 31.1527 92.7194 31.1525 92.7174C30.5177 85.998 31.1087 79.6861 32.9255 73.7817C34.7083 67.9874 37.6716 62.5855 41.8154 57.5761C41.8164 57.575 41.8173 57.5738 41.8183 57.5727C45.9601 52.5665 50.7081 48.6451 56.0623 45.8085C61.5243 42.9147 67.6171 41.1499 74.3408 40.5141C74.3427 40.5139 74.3447 40.5137 74.3466 40.5135C81.0661 39.8788 87.378 40.4698 93.2824 42.2865C99.0767 44.0694 104.479 47.0327 109.488 51.1765C109.489 51.1774 109.49 51.1784 109.491 51.1793C114.5 55.3229 118.422 60.0731 121.259 65.43C121.259 65.4301 121.259 65.4298 121.259 65.43C124.15 70.8887 125.913 76.9779 126.549 83.6965C126.55 83.6982 126.55 83.7 126.55 83.7018L127.368 92.3473C127.612 94.9308 126.974 97.1969 125.454 99.1453C125.423 99.1853 125.392 99.2249 125.36 99.2642C125.36 99.2643 125.36 99.264 125.36 99.2642C123.851 101.136 121.833 102.193 119.306 102.434C119.304 102.434 119.301 102.434 119.298 102.435C117.575 102.597 116.014 102.344 114.614 101.674C114.613 101.674 114.613 101.674 114.612 101.673C113.913 101.339 113.254 100.9 112.635 100.358C112.269 100.037 111.935 99.6983 111.632 99.341C111.482 99.1638 111.339 98.9821 111.204 98.7958C110.228 97.4479 109.653 95.8622 109.481 94.0388L108.663 85.3933C107.887 77.1491 104.317 70.3941 97.952 65.1287C97.9511 65.128 97.9502 65.1272 97.9493 65.1265C97.9489 65.1262 97.9486 65.1259 97.9483 65.1257C91.584 59.8629 84.2786 57.6212 76.0323 58.4011C67.7889 59.1843 61.0342 62.7567 55.7689 69.1176C55.7688 69.1177 55.7689 69.1175 55.7689 69.1176C55.7687 69.1179 55.7682 69.1184 55.768 69.1186C50.5028 75.48 48.2601 82.7841 49.04 91.0318C49.8233 99.2751 53.3956 106.03 59.7568 111.295C59.7569 111.295 59.7566 111.295 59.7568 111.295C59.7569 111.295 59.7576 111.296 59.7577 111.296C66.1188 116.561 73.423 118.804 81.6707 118.024C85.642 117.653 89.3741 116.574 92.8667 114.788C95.3494 113.518 97.6089 111.903 99.6453 109.942C100.203 109.405 100.744 108.841 101.269 108.252C101.673 107.798 102.385 107.782 102.816 108.211C103.343 108.734 103.891 109.226 104.458 109.686C104.458 109.686 104.459 109.686 104.459 109.686C104.609 109.808 104.761 109.927 104.914 110.044C106.569 111.311 108.39 112.314 110.376 113.054C113.598 114.253 116.948 114.688 120.426 114.359C126.293 113.808 131.043 111.28 134.675 106.773C134.747 106.684 134.818 106.595 134.888 106.506C134.888 106.506 134.888 106.505 134.888 106.505C138.368 102.062 139.836 96.9665 139.292 91.2196L138.475 82.5741C137.699 74.3258 135.401 66.7226 131.584 59.7648C127.765 52.807 122.919 46.8986 117.046 42.04C111.173 37.1854 104.461 33.535 96.9104 31.0887C89.3602 28.6425 81.461 27.8092 73.2131 28.5892C64.9655 29.3732 57.3625 31.6725 50.4043 35.4867C43.4461 39.3009 37.5376 44.1448 32.6789 50.0184C27.8244 55.8915 24.174 62.6034 21.7277 70.1536C19.2815 77.7038 18.4482 85.6031 19.2281 93.851C20.0122 102.099 22.3115 109.702 26.1257 116.66C29.9398 123.618 34.7837 129.526 40.6571 134.385C40.6572 134.385 40.6571 134.385 40.6571 134.385C46.5303 139.24 53.2424 142.89 60.7926 145.336C68.3428 147.783 76.242 148.616 84.49 147.836L108.339 145.581C110.025 145.425 111.386 144.721 112.422 143.468C113.459 142.215 113.897 140.744 113.738 139.054ZM93.913 98.0854C94.4996 97.2086 94.9976 96.3033 95.4072 95.3697C95.759 94.568 96.0455 93.7453 96.2668 92.9017C96.7936 90.8934 96.9508 88.7665 96.7385 86.521C96.7383 86.5191 96.7381 86.5171 96.7379 86.5152C96.2671 81.5508 94.1301 77.4947 90.3267 74.3474C90.3268 74.3475 90.3266 74.3473 90.3267 74.3474C90.3257 74.3465 90.3243 74.3454 90.3232 74.3445C86.5178 71.1963 82.1316 69.8567 77.1653 70.3251C77.1635 70.3252 77.1618 70.3254 77.16 70.3256C72.1915 70.7954 68.1324 72.9338 64.9835 76.7408C64.9827 76.7417 64.982 76.7426 64.9812 76.7436C61.8347 80.5483 60.4957 84.9336 60.964 89.8987C60.9642 89.9005 60.9644 89.9023 60.9645 89.9041C61.4344 94.8726 63.5727 98.9317 67.3798 102.081C67.3807 102.081 67.3815 102.082 67.3824 102.083C67.3822 102.083 67.3826 102.083 67.3824 102.083C71.1884 105.23 75.5759 106.569 80.543 106.1C80.5471 106.099 80.5512 106.099 80.5552 106.098C83.07 105.859 85.3517 105.192 87.4002 104.097C89.1976 103.137 90.8154 101.847 92.2536 100.228C92.4111 100.051 92.5664 99.8694 92.7196 99.6843C93.1514 99.1622 93.5492 98.6293 93.913 98.0854ZM80.3904 89.4866L80.3915 89.4853C80.7156 89.0936 80.7739 88.8984 80.7829 88.8684L80.7835 88.8664L80.784 88.8648C80.7939 88.8327 80.8642 88.6048 80.8095 88.0274C80.755 87.45 80.6432 87.2393 80.6274 87.2096L80.6267 87.2082C80.6159 87.1877 80.5274 87.006 80.1256 86.6737L80.1243 86.6726C79.7325 86.3485 79.5374 86.2902 79.5073 86.2812L79.5053 86.2806C79.4798 86.2728 79.2541 86.1989 78.6663 86.2545C78.089 86.3091 77.8783 86.4209 77.8485 86.4366L77.8471 86.4374L77.8453 86.4383C77.8174 86.4528 77.6366 86.5467 77.3126 86.9385L77.3115 86.9398C76.9875 87.3315 76.9291 87.5267 76.9201 87.5567L76.9195 87.5587L76.9191 87.5603C76.9091 87.5924 76.8389 87.8203 76.8935 88.3977C76.9481 88.9751 77.0598 89.1858 77.0756 89.2155L77.0763 89.2169L77.0773 89.2188C77.0918 89.2467 77.1857 89.4274 77.5774 89.7514L77.5787 89.7525C77.9705 90.0766 78.1657 90.135 78.1957 90.1439L78.1977 90.1445L78.1993 90.145C78.2314 90.1549 78.4593 90.2252 79.0367 90.1706C79.614 90.116 79.8247 90.0043 79.8545 89.9885L79.8559 89.9877L79.8577 89.9868C79.8856 89.9723 80.0664 89.8784 80.3904 89.4866Z" fill="#2A2A41"/>
<path fill-rule="evenodd" clip-rule="evenodd" d="M168.664 44.8851C238.817 -1.57448 318.291 -7.03848 366.058 15.1905C390.181 26.4162 410.332 47.2837 408.991 76.7232C407.738 104.264 387.667 130.424 354.786 153.724C251.644 226.811 153.809 224.121 102.741 205.477C92.1056 201.595 86.6314 189.826 90.5139 179.19C94.3965 168.555 106.166 163.081 116.801 166.963C154.865 180.859 238.625 185.786 331.081 120.271C360.513 99.415 367.652 83.2528 368.034 74.8588C368.332 68.3153 364.483 59.6794 348.759 52.3626C316.687 37.4371 252.357 38.6343 191.302 79.0685C181.863 85.3199 169.143 82.7354 162.891 73.2959C156.64 63.8564 159.224 51.1364 168.664 44.8851Z" fill="#2A2A41"/>
<path fill-rule="evenodd" clip-rule="evenodd" d="M330.594 134.701L333.028 140.619L336.129 140.112C336.29 139.315 336.449 138.506 336.606 137.685C336.638 137.518 336.67 137.35 336.702 137.182L333.007 134.859L330.594 134.701ZM330.386 134.195L332.449 134.507L329.964 132.945C329.926 132.921 329.885 132.897 329.842 132.872L330.386 134.195ZM343.92 103.131L343.396 103.015L342.51 102.881C342.13 102.823 341.504 102.735 340.694 102.69C337.772 101.547 334.73 100.757 331.688 100.296C320.156 98.5502 309.858 101.294 302.167 107.944C294.936 114.195 291.523 122.582 290.438 129.75C288.877 140.062 291.261 149.601 296.268 157.124L292.905 163.506L292.629 164.169C292.124 165.378 291.561 167.069 291.261 169.052C291.061 170.373 290.718 173.414 291.817 176.984C293.063 181.034 295.823 184.634 299.808 186.86C305.072 189.892 310.934 191.926 316.95 192.837C325.226 194.089 334.584 193.252 343.195 188.612C352.035 183.849 358.733 175.799 362.517 165.143C366.565 153.744 368.79 140.05 370.676 128.442C370.78 127.802 370.882 127.169 370.984 126.543L370.999 126.454L371.013 126.364C372.235 118.292 367.69 108.286 357.032 105.985L356.883 105.953L356.734 105.923C356.735 105.924 356.715 105.92 356.67 105.91C356.626 105.902 356.57 105.89 356.498 105.875C356.354 105.845 356.171 105.806 355.948 105.759C355.504 105.665 354.94 105.543 354.293 105.403C353 105.124 351.419 104.778 349.877 104.441C348.338 104.103 346.848 103.776 345.743 103.532L343.922 103.131L343.92 103.131ZM306.779 177.815L306.808 177.827C306.785 177.818 306.766 177.81 306.779 177.815ZM73.6224 146.044C73.6224 146.044 73.6224 146.044 73.6224 146.044L129.994 150.149C137.841 150.72 144.545 156.024 146.905 163.529C149.266 171.035 146.806 179.221 140.699 184.182L126.037 196.092L123.135 214.758C121.926 222.533 116.094 228.782 108.421 230.523C100.748 232.265 92.7898 229.146 88.3429 222.655L56.3982 176.028C52.2318 169.946 51.9175 162.016 55.5893 155.624C59.2612 149.232 66.2702 145.508 73.6224 146.044ZM72.2286 165.182L71.9949 168.391C71.9949 168.391 71.9949 168.391 71.9949 168.391" fill="#2A2A41"/>
<path d="M50.1913 149.803L37.6336 138.337L16.8862 121.412L10.8804 96.2965L15.2483 65.7213L34.3577 35.1462L68.7548 19.8586L108.066 29.1404L124.445 33.5082L147.923 18.7667L185.05 18.2202L192.147 27.502L200.883 43.8815L235.826 33.5078L341.747 26.9561L381.058 61.8986L366.862 93.0202L323.184 160.176L273.499 191.843L162.664 208.769L117.893 197.849L95.508 214.775L67.1168 175.464L50.1913 149.803Z" fill="#2A2A41"/>
<path fill-rule="evenodd" clip-rule="evenodd" d="M198.759 118.073C198.629 118.103 198.497 118.132 198.366 118.16C193.454 119.201 188.488 120.263 183.501 121.329C175.562 123.026 167.567 124.735 159.64 126.394C159.256 126.474 158.869 126.545 158.481 126.606L158.311 126.632C158.311 126.632 158.312 126.632 158.311 126.632C143.22 128.991 132.643 117.961 130.148 107.687C130.093 107.459 130.041 107.23 129.993 107L116.147 41.2702C116.064 40.8762 115.991 40.4801 115.929 40.0822L115.903 39.9123C113.83 26.6554 122.727 14.0899 135.791 11.5394L173.609 3.55223C174.007 3.46818 174.407 3.3947 174.809 3.33188L174.979 3.30531C174.979 3.30531 174.979 3.30531 174.979 3.30531C182.461 2.13547 188.919 4.54858 193.28 7.63482C197.634 10.7153 201.628 15.6526 203.227 22.237C203.294 22.5141 203.356 22.7925 203.413 23.0719L206.405 37.75C206.475 38.0952 206.537 38.4419 206.592 38.7899L206.618 38.9599C207.536 44.8313 206.346 50.1144 204.003 54.4744C204.033 55.5292 204.159 56.6352 204.378 57.6687C204.414 57.8386 204.451 57.9992 204.488 58.1504C209.749 61.7065 213.717 67.2676 214.992 74.2057L217.853 88.6685C217.913 88.9709 217.967 89.2745 218.014 89.5791C219.921 101.775 212.496 114.909 198.759 118.073ZM205.11 59.9618C205.124 59.9843 205.13 59.9964 205.13 59.9968C205.13 59.9972 205.123 59.9859 205.11 59.9618ZM178.532 26.0293L178.362 26.0558L140.275 34.0997C139.256 34.2591 138.467 35.3399 138.627 36.3595L138.653 36.5294L152.499 102.26C152.743 103.266 153.739 104.068 154.759 103.908L154.928 103.882C162.825 102.229 170.715 100.542 178.606 98.8555C179.578 98.6478 180.549 98.4401 181.521 98.2325C181.725 98.1888 181.93 98.1451 182.134 98.1014C185.758 97.3272 189.382 96.5539 193.007 95.785C193.203 95.7433 193.4 95.7016 193.597 95.6599C194.773 95.389 195.463 94.2365 195.29 93.1319L192.384 78.4405C192.225 77.4209 191.144 76.6324 190.039 76.8051C189.93 76.8221 189.819 76.7966 189.73 76.7315C189.672 76.6889 189.614 76.6458 189.557 76.6022C189.412 76.4928 189.27 76.38 189.129 76.264C188.245 75.5357 187.434 74.6804 186.697 73.7228C186.672 73.6912 186.648 73.6594 186.624 73.6275C181.885 67.3918 180.192 56.9174 181.346 48.9329C181.35 48.9067 181.354 48.8806 181.357 48.8545C181.443 48.2723 181.544 47.7035 181.66 47.1508C181.693 46.995 181.727 46.8405 181.762 46.6874C181.762 46.6874 181.762 46.6874 181.762 46.6874C181.863 46.2439 181.975 45.8115 182.097 45.3918C182.144 45.2266 182.237 45.0857 182.355 44.9646C182.477 44.8401 182.625 44.7364 182.779 44.6485C183.519 44.2247 184.025 43.3482 183.894 42.5127L183.868 42.3428L180.877 27.6647C180.632 26.6583 179.551 25.8698 178.532 26.0293Z" fill="#2A2A41"/>
<path d="M85.4799 147.885C77.232 148.665 69.3327 147.831 61.7825 145.385C54.2323 142.939 47.5204 139.288 41.6473 134.434C35.7737 129.575 30.9298 123.667 27.1156 116.708C23.3015 109.75 21.0021 102.147 20.2181 93.8997C19.4381 85.6518 20.2714 77.7525 22.7177 70.2023C25.1639 62.6521 28.8143 55.9403 33.6689 50.0671C38.5275 44.1935 44.4361 39.3496 51.3943 35.5355C58.3524 31.7213 65.9555 29.422 74.203 28.6379C82.4509 27.8579 90.3502 28.6912 97.9004 31.1375C105.451 33.5837 112.162 37.2341 118.036 42.0887C123.909 46.9473 128.755 52.8557 132.574 59.8135C136.391 66.7713 138.689 74.3746 139.465 82.6228L140.282 91.2683C140.837 97.1312 139.298 102.316 135.665 106.822C132.033 111.329 127.283 113.857 121.416 114.408C117.938 114.737 114.588 114.301 111.366 113.102C108.145 111.903 105.359 110.011 103.009 107.426C100.4 110.58 97.3492 113.051 93.8567 114.836C90.3641 116.622 86.632 117.701 82.6607 118.073C74.4127 118.853 67.1084 116.61 60.7472 111.344C54.3857 106.079 50.8133 99.324 50.03 91.0805C49.25 82.8326 51.4929 75.5282 56.7586 69.1667C62.0239 62.8055 68.7787 59.2331 77.0222 58.4498C85.2702 57.6698 92.5767 59.9125 98.9419 65.1775C105.307 70.4428 108.877 77.1978 109.653 85.4421L110.471 94.0876C110.715 96.671 111.767 98.7774 113.625 100.406C115.483 102.035 117.705 102.728 120.288 102.483C122.872 102.239 124.924 101.143 126.444 99.1941C127.964 97.2456 128.602 94.9795 128.358 92.396L127.54 83.7505C126.281 70.4345 120.593 59.5927 110.478 51.2252C100.362 42.8577 88.6467 39.3035 75.3307 40.5628C62.0147 41.8221 51.1729 47.5094 42.8054 57.6248C34.4379 67.7403 30.8837 79.456 32.143 92.772C33.4023 106.088 39.0896 116.929 49.205 125.297C59.3205 133.665 71.0362 137.219 84.3522 135.96L108.202 133.704C109.891 133.545 111.362 133.983 112.615 135.019C113.868 136.056 114.572 137.417 114.728 139.103C114.887 140.792 114.449 142.264 113.412 143.517C112.376 144.77 111.015 145.474 109.329 145.629L85.4799 147.885ZM81.533 106.148C86.5015 105.678 90.5606 103.54 93.7095 99.733C96.8588 95.9263 98.1983 91.5383 97.7284 86.5697C97.2586 81.6012 95.1202 77.5421 91.3132 74.3932C87.5064 71.2439 83.1184 69.9044 78.1499 70.3743C73.1814 70.8442 69.1223 72.9825 65.9734 76.7896C62.8241 80.5963 61.4846 84.9843 61.9545 89.9528C62.4243 94.9213 64.5627 98.9804 68.3697 102.129C72.1765 105.279 76.5645 106.618 81.533 106.148Z" fill="url(#paint0_linear_197_2047)"/>
<path d="M236.973 104.248L223.564 103.973L223.421 103.962C222.703 103.909 222.176 103.22 222.163 102.424L222.572 87.2209C222.753 79.9423 221.469 76.8144 216.972 76.1189L216.326 102.279C216.262 103.141 215.639 103.744 214.844 103.757L201.369 103.405L201.226 103.394C200.508 103.341 199.981 102.652 199.968 101.856L200.95 64.3861L200.961 64.2425C201.02 63.4527 201.637 62.921 202.36 62.9026L206.685 63.0077C210.437 62.0594 214.07 61.7521 217.516 62.0084C220.748 62.2488 223.726 62.9757 226.446 64.261C231.169 62.8796 235.608 62.4156 239.629 62.7147C252.266 63.6548 260.936 72.3137 260.753 85.4404C260.693 90.1289 261.222 93.7059 264.399 96.6136C264.803 97.0046 265.611 97.7868 265.552 98.5766C265.525 98.9356 265.35 99.3557 264.892 99.6827C264.882 99.8263 258.346 105.188 258.346 105.188C257.503 105.847 256.835 106.087 256.117 106.033C255.112 105.958 244.005 102.894 244.195 88.685C244.413 80.9037 243.119 77.9195 239.069 77.0406L238.454 102.77C238.39 103.632 237.768 104.235 236.973 104.248Z" fill="white"/>
<path d="M316.213 84.6198L313.034 93.8782C312.566 95.182 311.946 95.9258 311.019 96.059C310.307 96.1614 305.154 95.7382 301.109 92.9008C297.68 95.3577 293.954 96.766 290.32 97.2885C278.418 98.9991 266.844 91.3519 265.195 79.8779C263.966 71.3257 268.252 58.1258 282.363 56.0975C285.926 55.5854 289.531 55.8674 292.484 56.6794C292.84 56.1191 293.451 55.8131 294.306 55.6902L294.662 55.639L307.145 54.9358C309.019 54.812 309.651 55.6668 309.774 56.522L309.825 56.8784C309.759 63.5071 309.653 69.8508 310.329 74.5545C310.944 78.8305 312.168 81.7824 314.623 82.6661C315.387 82.92 316.232 83.2349 316.334 83.9476C316.355 84.0902 316.314 84.3142 316.213 84.6198ZM294.584 82.4186C294.103 80.5963 293.674 78.6213 293.357 76.412C293.09 74.5591 292.885 72.6246 292.72 70.4661C291.66 69.1637 289.592 68.4425 287.526 68.7396C283.036 69.3849 281.166 74.0908 281.689 77.7254C282.262 81.7164 285.533 84.7377 290.166 84.0719C291.52 83.8773 293.047 83.3669 294.584 82.4186Z" fill="white"/>
<path d="M162.913 181.029L146.19 183.988L146.031 184.007C144.999 184.135 144.097 183.36 143.979 182.408L135.981 137.369L123.049 139.697C121.938 139.834 120.887 139.158 120.759 138.126L118.225 123.527L118.205 123.368C118.087 122.416 118.783 121.523 119.805 121.316L165.787 113.121C166.819 112.993 167.949 113.659 168.087 114.771L170.601 129.211C170.729 130.243 170.053 131.294 168.951 131.512L156.486 133.701L164.493 178.818L164.503 178.898C164.631 179.93 163.856 180.832 162.913 181.029Z" fill="white"/>
<path d="M223.087 170.543L215.53 175.15C214.656 175.681 213.913 175.795 213.271 175.704C212.986 175.664 200.137 171.383 202.176 156.91C203.39 148.283 199.829 144.655 194.696 143.932L194.34 143.882L190.695 169.762C190.575 170.618 189.843 171.169 189.058 171.059L174.799 169.051C173.943 168.93 173.392 168.198 173.513 167.343L181.725 109.022C181.836 108.238 182.578 107.615 183.433 107.736L197.693 109.744C198.477 109.854 199.018 110.657 198.908 111.442L196.297 129.979C197.163 130.028 198.019 130.148 198.803 130.259C212.207 132.146 221.777 141.638 220.003 155.785C219.421 160.429 219.846 164.124 222.948 167.397C223.326 167.813 224.01 168.637 223.899 169.421C223.849 169.778 223.646 170.185 223.087 170.543Z" fill="white"/>
<path d="M249.159 170.581L235.063 173.612L234.921 173.636C234.139 173.763 233.467 173.217 233.268 172.447L225.839 138.131C225.7 137.279 226.164 136.546 227.005 136.336L241.101 133.304L241.243 133.281C241.953 133.165 242.697 133.7 242.813 134.41L250.254 168.797L250.277 168.939C250.393 169.65 249.858 170.394 249.159 170.581ZM241.826 121.221C242.766 126.977 238.843 132.433 233.087 133.373C227.26 134.324 221.804 130.401 220.864 124.645C219.912 118.818 223.836 113.362 229.663 112.411C235.419 111.47 240.875 115.394 241.826 121.221Z" fill="white"/>
<path d="M301.474 138.484L301.272 140.851C300.929 144.868 301.587 148.176 304.295 151.153C304.695 151.549 305.351 152.327 305.284 153.116C305.247 153.547 304.995 153.959 304.463 154.275C304.45 154.418 296.914 158.906 296.914 158.906C296.147 159.419 295.412 159.573 294.766 159.518C293.475 159.407 282.321 154.626 283.41 141.857L283.618 139.417C284.26 131.885 280.871 128.416 275.659 127.682L272.074 153.608C272.013 154.325 271.312 154.916 270.595 154.854L270.451 154.842L256.165 152.901C255.31 152.756 254.791 152.061 254.864 151.2L259.984 114.061C260.123 113.278 260.823 112.687 261.541 112.748L261.684 112.761L269.682 113.877C272.529 113.541 275.208 113.481 277.791 113.701C292.354 114.943 302.643 124.781 301.474 138.484Z" fill="white"/>
<path d="M110.761 186.269C155.327 202.539 246.124 206.347 343.923 137.046C468.577 48.7153 312.187 -24.8719 180.973 62.0255" stroke="url(#paint1_angular_197_2047)" stroke-width="9" stroke-linecap="round"/>
<path d="M194.582 95.7196L172.676 100.363C172.591 100.376 172.434 100.488 172.349 100.501L155.913 103.941L155.744 103.968C154.724 104.127 153.728 103.326 153.484 102.319L139.638 36.5891L139.612 36.4191C139.452 35.3995 140.241 34.3188 141.26 34.1593L156.592 30.8919L156.931 30.8387L179.347 26.1155L179.517 26.0889C180.536 25.9295 181.617 26.718 181.862 27.7244L184.853 42.4025L184.879 42.5724C185.039 43.592 184.25 44.6728 183.244 44.9172L163.606 49.0321L165.173 56.2729L180.382 53.895C181.402 53.7355 182.554 54.4258 182.727 55.5304L182.754 55.7003L184.616 68.727C184.717 69.9298 184.014 70.9973 182.824 71.1833L168.72 73.3885L170.38 81.2241L190.854 76.8914L191.024 76.8648C192.129 76.6921 193.21 77.4806 193.369 78.5002L196.275 93.1916C196.448 94.2962 195.758 95.4487 194.582 95.7196Z" fill="white"/>
<path d="M308.385 170.378L311.655 164.173C312.08 163.291 312.938 162.911 313.721 163.03C313.864 163.051 313.995 163.144 314.138 163.165C315.984 163.955 317.661 164.427 319.227 164.664C325.207 165.569 329.212 162.68 331.783 157.244C329.468 157.622 326.983 157.682 324.705 157.337C313.813 155.689 305.243 145.434 307.248 132.193C308.552 123.579 315.262 113.891 330.283 116.164C333.7 116.682 336.877 117.818 339.471 119.449C339.803 118.698 340.465 118.653 341.106 118.75L341.462 118.803C341.462 118.803 353.018 121.354 354.645 121.673C355.773 121.917 356.345 122.95 356.183 124.018C354.144 136.525 352.111 149.471 348.43 159.837C343.227 174.487 331.44 178.747 320.335 177.066C316.206 176.441 312.196 175.032 308.649 172.966C308.04 172.656 307.984 172.065 308.071 171.495C308.135 171.068 308.271 170.652 308.385 170.378ZM335.108 144.421L335.496 144.261C336.069 141.435 336.615 138.314 337.1 135.11C337.321 131.721 334.814 129.521 331.753 129.058C327.268 128.379 324.227 131.632 323.624 135.619C323.203 138.395 323.459 144.405 329.723 145.354C331.432 145.612 333.828 145.174 335.108 144.421Z" fill="white"/>
<path d="M334.123 104.498L319.766 103.168L319.623 103.147C318.839 103.035 318.361 102.312 318.402 101.518L321.594 66.553C321.717 65.6977 322.379 65.138 323.245 65.1893L337.601 66.5193L337.744 66.5397C338.456 66.6418 339.006 67.3752 338.904 68.0879L335.701 103.124L335.681 103.266C335.579 103.979 334.845 104.529 334.123 104.498ZM341.913 55.2086C341.086 60.9816 335.708 65.0114 329.935 64.1841C324.091 63.3466 320.061 57.9686 320.888 52.1956C321.725 46.3513 327.103 42.3214 332.948 43.1589C338.721 43.9862 342.751 49.3643 341.913 55.2086Z" fill="white"/>
<path d="M364.197 97.6598H349.725C348.933 97.6598 348.285 97.0118 348.285 96.2198V37.3958C348.285 36.5318 348.933 35.8838 349.725 35.8838H364.197C364.989 35.8838 365.637 36.5318 365.637 37.3958V96.2198C365.637 97.0118 364.989 97.6598 364.197 97.6598Z" fill="white"/>
<path fill-rule="evenodd" clip-rule="evenodd" d="M70.4531 163.642C71.0634 162.58 72.2283 161.961 73.4502 162.05L129.822 166.155C131.126 166.25 132.24 167.132 132.633 168.379C133.025 169.626 132.616 170.987 131.601 171.811L112.461 187.359C112.269 187.515 112.141 187.737 112.103 187.982L108.315 212.349C108.114 213.641 107.145 214.679 105.869 214.969C104.594 215.258 103.271 214.74 102.532 213.661L70.5876 167.033C69.8951 166.023 69.8429 164.705 70.4531 163.642ZM108.293 181.701C108.652 181.907 109.101 181.871 109.422 181.61L119.378 173.523C120.081 172.952 119.723 171.815 118.82 171.749L91.296 169.745C90.2355 169.668 89.8032 171.08 90.7253 171.609L108.293 181.701ZM87.5481 177.14C86.626 176.611 85.624 177.695 86.225 178.573L101.822 201.339C102.334 202.086 103.496 201.822 103.635 200.927L105.606 188.253C105.67 187.844 105.475 187.438 105.116 187.232L87.5481 177.14Z" fill="white"/>
<path fill-rule="evenodd" clip-rule="evenodd" d="M276.852 27.013C277.901 23.8056 276.152 20.3548 272.944 19.3054L259.432 14.8845C256.225 13.8351 252.774 15.5845 251.725 18.7919C250.619 22.1699 249.514 25.548 248.409 28.926C247.359 32.1334 249.109 35.5843 252.316 36.6337L265.828 41.0546C269.036 42.104 272.487 40.3546 273.536 37.1472C274.641 33.7691 275.746 30.3911 276.852 27.013Z" fill="#2A2A41"/>
<path fill-rule="evenodd" clip-rule="evenodd" d="M257.67 20.2703C257.437 20.1941 257.186 20.3211 257.11 20.5541L257.062 20.7024L262.593 27.4245C262.64 27.4798 262.701 27.521 262.77 27.5435C262.839 27.566 262.912 27.569 262.983 27.552C262.983 27.5518 262.984 27.5516 262.985 27.5514L271.417 25.3993L271.466 25.251C271.542 25.0181 271.415 24.7674 271.182 24.6912L257.67 20.2703ZM273.731 26.9034L274 26.0802C274.535 24.4475 273.644 22.6909 272.011 22.1567L258.499 17.7358C256.867 17.2016 255.11 18.0922 254.576 19.7249L254.306 20.548C254.302 20.5614 254.297 20.5748 254.293 20.5884L251.26 29.859C250.726 31.4917 251.616 33.2483 253.249 33.7825L266.761 38.2034C268.394 38.7376 270.151 37.8471 270.685 36.2144L273.718 26.9437C273.723 26.9303 273.727 26.9169 273.731 26.9034ZM270.435 28.4022L263.628 30.1394C263.071 30.2778 262.486 30.2565 261.94 30.078C261.395 29.8995 260.91 29.5709 260.543 29.1299L260.537 29.1234L256.079 23.7053L253.795 30.6882C253.718 30.9212 253.845 31.1718 254.078 31.248L267.591 35.6689C267.823 35.7451 268.074 35.6181 268.15 35.3851L270.435 28.4022Z" fill="#B7A6E4"/>
<path fill-rule="evenodd" clip-rule="evenodd" d="M395.111 86.5997C393.809 83.4862 390.229 82.0177 387.116 83.3197L373.999 88.8047C370.886 90.1066 369.417 93.6861 370.719 96.7995C372.091 100.079 373.462 103.358 374.833 106.637C376.135 109.75 379.715 111.219 382.828 109.917L395.944 104.432C399.058 103.13 400.526 99.5504 399.224 96.4369C397.853 93.1578 396.482 89.8787 395.111 86.5997Z" fill="#2A2A41"/>
<path fill-rule="evenodd" clip-rule="evenodd" d="M376.186 94.0326C375.96 94.1271 375.853 94.3871 375.947 94.6132L376.008 94.7572L384.587 96.23C384.659 96.2413 384.732 96.2325 384.799 96.2046C384.866 96.1766 384.923 96.1307 384.966 96.0718C384.966 96.0711 384.967 96.0703 384.967 96.0696L389.943 88.9298L389.883 88.7858C389.788 88.5597 389.528 88.4531 389.302 88.5476L376.186 94.0326ZM392.677 88.5561L392.343 87.757C391.68 86.1722 389.858 85.4246 388.273 86.0874L375.157 91.5724C373.572 92.2351 372.824 94.0572 373.487 95.642L373.821 96.4411C373.827 96.4542 373.832 96.4673 373.838 96.4802L377.601 105.479C378.264 107.064 380.086 107.812 381.671 107.149L394.787 101.664C396.372 101.001 397.119 99.1791 396.457 97.5943L392.693 88.5952C392.688 88.5821 392.683 88.569 392.677 88.5561ZM391.162 91.8447L387.145 97.6082C386.814 98.0771 386.357 98.4433 385.828 98.6648C385.298 98.8863 384.717 98.9541 384.15 98.8606L384.142 98.8592L377.227 97.6721L380.061 104.45C380.156 104.677 380.416 104.783 380.642 104.689L393.758 99.2037C393.984 99.1092 394.091 98.8492 393.996 98.6231L391.162 91.8447Z" fill="#B7A6E4"/>
<path fill-rule="evenodd" clip-rule="evenodd" d="M206.112 188.839C206.641 184.192 203.301 179.996 198.654 179.468L179.075 177.243C174.428 176.714 170.232 180.054 169.704 184.701C169.147 189.596 168.591 194.49 168.035 199.385C167.506 204.033 170.846 208.228 175.493 208.757L195.072 210.982C199.719 211.51 203.915 208.171 204.443 203.523C205 198.629 205.556 193.734 206.112 188.839Z" fill="#2A2A41"/>
<path fill-rule="evenodd" clip-rule="evenodd" d="M178.188 185.046C177.851 185.008 177.546 185.25 177.507 185.588L177.483 185.803L186.87 193.382C186.949 193.444 187.044 193.483 187.144 193.494C187.243 193.506 187.344 193.489 187.435 193.446C187.436 193.446 187.437 193.445 187.438 193.445L198.284 188.167L198.309 187.952C198.347 187.614 198.104 187.31 197.767 187.271L178.188 185.046ZM201.845 189.562L201.981 188.369C202.25 186.004 200.55 183.868 198.184 183.599L178.605 181.374C176.24 181.105 174.104 182.805 173.835 185.17L173.7 186.363C173.697 186.382 173.695 186.402 173.693 186.421L172.166 199.854C171.897 202.22 173.597 204.356 175.963 204.625L195.542 206.85C197.907 207.119 200.043 205.419 200.312 203.053L201.839 189.62C201.841 189.601 201.843 189.582 201.845 189.562ZM197.79 192.518L189.035 196.778C188.317 197.122 187.517 197.257 186.726 197.167C185.936 197.077 185.186 196.766 184.564 196.27L184.555 196.263L176.988 190.154L175.838 200.272C175.8 200.609 176.043 200.914 176.38 200.952L195.959 203.178C196.296 203.216 196.601 202.974 196.64 202.636L197.79 192.518Z" fill="#B7A6E4"/>
<defs>
<linearGradient id="paint0_linear_197_2047" x1="13.8926" y1="33.7088" x2="150.09" y2="148.107" gradientUnits="userSpaceOnUse">
<stop stop-color="#FF9797"/>
<stop offset="1" stop-color="#6D6AFF"/>
</linearGradient>
<radialGradient id="paint1_angular_197_2047" cx="0" cy="0" r="1" gradientUnits="userSpaceOnUse" gradientTransform="translate(250.151 105.815) rotate(-174.867) scale(110.047 90.4364)">
<stop stop-color="#583FB3"/>
<stop offset="0.97" stop-color="#9577E4"/>
</radialGradient>
</defs>
</svg>
