<svg xmlns="http://www.w3.org/2000/svg" width="2554" height="534" fill="none" viewBox="0 0 2554 534">
  <path fill="#fff" d="M267.5 534c-37.004 0-71.779-7.013-104.325-21.04-32.546-14.026-60.856-33.045-84.931-57.058-24.075-24.03-43.13-52.287-57.165-84.772C7.044 338.645.018 303.935 0 267c0-36.935 7.026-71.645 21.079-104.13s33.108-60.743 57.165-84.773c24.075-24.03 52.385-43.049 84.931-57.057C195.721 7.03 230.496.018 267.5 0c37.004 0 71.779 7.013 104.325 21.04 32.546 14.026 60.856 33.045 84.931 57.057 24.075 24.03 43.139 52.288 57.192 84.773C528 195.355 535.018 230.065 535 267v38.715c0 26.255-9.024 48.621-27.071 67.097-18.047 18.476-40.232 27.706-66.554 27.688-15.604 0-30.317-3.338-44.138-10.013-13.82-6.675-25.412-16.242-34.775-28.702-12.929 12.905-27.534 22.588-43.816 29.05-16.282 6.461-33.331 9.683-51.146 9.665-37.004 0-68.542-13.021-94.615-39.062-26.072-26.042-39.117-57.521-39.135-94.438 0-36.935 13.045-68.414 39.135-94.438 26.09-26.023 57.629-39.044 94.615-39.062 37.004 0 68.551 13.021 94.641 39.062 26.091 26.041 39.127 57.521 39.109 94.438v38.715c0 11.57 3.79 21.36 11.369 29.37 7.579 8.01 17.164 12.015 28.756 12.015 11.592 0 21.177-4.005 28.756-12.015 7.579-8.01 11.369-17.8 11.369-29.37V267c0-59.63-20.731-110.138-62.194-151.523C377.844 74.092 327.242 53.4 267.5 53.4c-59.742 0-110.344 20.693-151.806 62.077C74.231 156.862 53.5 207.37 53.5 267c0 59.63 20.731 110.137 62.194 151.522C157.156 459.907 207.758 480.6 267.5 480.6h107c7.579 0 13.937 2.563 19.073 7.69 5.136 5.126 7.695 11.463 7.677 19.01 0 7.565-2.568 13.911-7.704 19.037-5.136 5.126-11.485 7.681-19.046 7.663h-107Zm0-186.9c22.292 0 41.24-7.788 56.844-23.363S347.75 289.25 347.75 267s-7.802-41.163-23.406-56.738C308.74 194.687 289.792 186.9 267.5 186.9s-41.24 7.787-56.844 23.362S187.25 244.75 187.25 267s7.802 41.162 23.406 56.737C226.26 339.312 245.208 347.1 267.5 347.1Zm374.148-183.038c0-5.208 1.888-9.635 5.664-13.281 3.907-3.776 8.529-5.664 13.868-5.664l167.382.195h.196c5.338 0 9.896 1.954 13.672 5.86 3.906 3.776 5.859 8.333 5.859 13.672 0 5.338-1.953 9.961-5.859 13.867-3.776 3.776-8.334 5.664-13.672 5.664h-.196l-147.851-.195.195 80.078 131.641.976c5.599 0 10.221 1.954 13.867 5.86 3.776 3.906 5.664 8.919 5.664 15.039 0 5.208-2.018 9.635-6.055 13.281-4.036 3.516-8.528 5.274-13.476 5.274h-.195l-131.25-.977.195 82.617 147.265-.195h.196c5.338 0 9.896 1.953 13.672 5.859 3.906 3.776 5.859 8.334 5.859 13.672 0 5.339-1.953 9.961-5.859 13.867-3.776 3.776-8.334 5.664-13.672 5.664h-.196l-166.796.196c-5.339 0-9.961-1.888-13.868-5.664-3.776-3.907-5.664-8.464-5.664-13.672l-.586-241.993Zm317.383 46.876c12.63 0 23.698 3.059 33.203 9.179 9.636 6.12 17.516 13.542 23.636 22.266 7.29-8.464 16.08-15.821 26.36-22.071 10.29-6.38 21.75-9.57 34.38-9.57 16.67 0 30.47 4.492 41.41 13.477 11.06 8.854 19.27 20.508 24.6 34.961 5.34 14.453 8.01 30.078 8.01 46.875l.2 104.101c0 5.209-1.89 9.701-5.67 13.477-3.77 3.776-8.39 5.664-13.86 5.664-5.47 0-10.09-1.888-13.87-5.664-3.78-3.776-5.66-8.268-5.66-13.477l-.2-103.711c0-9.896-.91-19.14-2.73-27.734-1.83-8.724-5.15-15.755-9.96-21.094-4.82-5.338-11.79-8.008-20.9-8.008-9.64 0-17.91 2.67-24.81 8.008-6.77 5.339-11.98 12.37-15.62 21.094-3.52 8.594-5.28 17.904-5.28 27.93l.2 104.101c0 5.209-1.95 9.701-5.86 13.477-3.78 3.646-8.33 5.469-13.67 5.469-5.47 0-10.09-1.889-13.87-5.665-3.776-3.776-5.664-8.268-5.664-13.476V306.836c0-12.24-2.083-22.591-6.25-31.055-4.036-8.463-9.31-14.843-15.82-19.14-6.38-4.427-12.956-6.641-19.727-6.641-9.635 0-18.294 4.492-25.976 13.477-7.682 8.984-11.524 22.981-11.524 41.992v105.273c0 5.209-1.953 9.701-5.859 13.477-3.776 3.646-8.333 5.469-13.672 5.469-5.338 0-9.961-1.889-13.867-5.665-3.776-3.776-5.664-8.268-5.664-13.476V229.883c0-5.339.976-9.831 2.93-13.477 2.083-3.776 5.859-5.664 11.328-5.664 4.297 0 8.268 1.367 11.914 4.102 3.646 2.734 6.575 7.291 8.789 13.672l3.711 10.742c4.166-8.594 10.547-15.43 19.14-20.508 8.724-5.208 17.448-7.812 26.172-7.812Zm332.229-.782c9.63 0 19.01 1.953 28.12 5.86 9.25 3.776 17.45 8.593 24.61 14.453 7.29 5.729 12.7 11.653 16.21 17.773l2.15-18.75c0-5.338 1.56-9.896 4.69-13.672 3.12-3.906 7.36-5.859 12.69-5.859 5.34 0 9.9 1.953 13.68 5.859 3.9 3.776 5.86 8.334 5.86 13.672v.391l-.39 180.859c0 5.339-1.96 9.961-5.86 13.867-3.78 3.776-8.34 5.664-13.68 5.664-5.33 0-9.57-1.888-12.69-5.664-3.13-3.906-4.69-8.528-4.69-13.867l-2.15-15.625c-6.77 11.589-16.66 20.248-29.69 25.977-13.02 5.599-26.1 8.398-39.25 8.398-14.72 0-28.52-2.864-41.41-8.594-12.89-5.859-24.22-13.867-33.98-24.023-9.77-10.156-17.45-21.81-23.05-34.961-5.47-13.151-8.2-27.018-8.2-41.602 0-14.453 2.67-28.255 8-41.406 5.47-13.281 13.03-25.065 22.66-35.351 9.77-10.417 21.09-18.555 33.99-24.414 13.02-5.99 27.14-8.985 42.38-8.985Zm67.38 109.766c0-12.761-2.99-24.479-8.98-35.156-5.86-10.677-13.87-19.271-24.03-25.782-10.15-6.51-21.74-9.765-34.76-9.765-12.76 0-24.29 3.255-34.57 9.765-10.29 6.511-18.43 15.17-24.42 25.977-5.99 10.677-8.98 22.266-8.98 34.766 0 12.63 3.06 24.349 9.18 35.156 6.12 10.677 14.32 19.271 24.61 25.781 10.41 6.51 21.87 9.766 34.37 9.766 12.5 0 23.83-3.256 33.99-9.766 10.28-6.51 18.42-15.104 24.41-25.781 6.12-10.807 9.18-22.461 9.18-34.961Zm99.81-128.906c-5.99 0-10.88-1.823-14.65-5.469-3.78-3.776-5.73-8.399-5.86-13.867l-.39-14.844c0-4.948 2.21-8.919 6.64-11.914 4.42-3.125 8.66-4.688 12.69-4.688 5.47 0 10.03 1.888 13.67 5.664 3.78 3.776 5.73 8.334 5.86 13.672l.2 11.719c0 5.078-1.69 9.635-5.08 13.672-3.38 4.036-7.75 6.055-13.08 6.055Zm-21.1 36.914c0-4.948 2.08-8.985 6.25-12.11s8.2-4.687 12.11-4.687c5.73 0 10.61 1.693 14.65 5.078 4.04 3.385 6.05 7.878 6.05 13.477v.195l.39 180.859c0 5.209-1.95 9.636-5.85 13.281-3.78 3.646-8.34 5.469-13.68 5.469-5.47 0-10.09-1.823-13.86-5.469-3.78-3.776-5.67-8.268-5.67-13.476l-.39-182.617Zm95.12-87.891c6.25 0 11.26 2.083 15.04 6.25 3.77 4.037 5.6 8.464 5.47 13.281v251.563c0 5.208-2.09 9.44-6.25 12.695-4.04 3.125-8.08 4.688-12.11 4.688-5.6 0-10.48-1.823-14.65-5.469-4.04-3.646-6.06-8.333-6.06-14.063V159.57c0-4.948 1.76-9.44 5.28-13.476 3.64-4.037 8.07-6.055 13.28-6.055Zm43.94 25c0-5.338 1.89-9.896 5.67-13.672 3.9-3.906 8.53-5.859 13.87-5.859h.19l195.12-1.172h.39c5.34 0 9.89 1.953 13.67 5.859 3.91 3.776 5.86 8.334 5.86 13.672 0 5.339-1.95 9.961-5.86 13.867-3.78 3.776-8.33 5.664-13.67 5.664h-.2l-77.73.391-.98 224.219v.195c0 5.208-1.95 9.701-5.86 13.477-3.77 3.776-8.33 5.664-13.67 5.664s-9.96-1.888-13.87-5.664c-3.77-3.776-5.66-8.269-5.66-13.477v-.391l.98-223.828-78.52.586h-.19c-5.34 0-9.97-1.888-13.87-5.664-3.78-3.906-5.67-8.528-5.67-13.867Zm258.21-6.055c0-5.208 1.89-9.635 5.66-13.281 3.78-3.776 8.4-5.664 13.87-5.664 5.34 0 9.89 1.888 13.67 5.664 3.91 3.646 5.86 8.073 5.86 13.281v85.157c4.95-10.547 12.17-18.62 21.68-24.219 9.5-5.729 18.68-8.594 27.54-8.594 20.44 0 37.11 4.167 50 12.5 13.02 8.333 22.59 19.922 28.71 34.766 6.12 14.844 9.18 31.966 9.18 51.367v1.758l-.2 98.633v.195c0 5.208-1.95 9.7-5.86 13.476-3.77 3.646-8.33 5.469-13.67 5.469s-9.96-1.823-13.86-5.469c-3.78-3.776-5.67-8.268-5.67-13.476v-.195l.2-97.657v-.39c0-20.052-3.32-35.352-9.96-45.899-6.65-10.547-19.6-15.82-38.87-15.82-16.28 0-28.52 5.664-36.72 16.992-8.07 11.328-12.11 25.912-12.11 43.75v99.414c0 5.209-1.95 9.701-5.86 13.477-3.78 3.646-8.33 5.469-13.67 5.469-5.6 0-10.35-1.889-14.26-5.665-3.77-3.906-5.66-8.333-5.66-13.281V158.984Zm234.37 32.032c-5.99 0-10.87-1.823-14.65-5.469-3.77-3.776-5.73-8.399-5.86-13.867l-.39-14.844c0-4.948 2.22-8.919 6.64-11.914 4.43-3.125 8.66-4.688 12.7-4.688 5.47 0 10.03 1.888 13.67 5.664 3.78 3.776 5.73 8.334 5.86 13.672l.2 11.719c0 5.078-1.7 9.635-5.08 13.672-3.39 4.036-7.75 6.055-13.09 6.055Zm-21.09 36.914c0-4.948 2.08-8.985 6.25-12.11s8.2-4.687 12.11-4.687c5.73 0 10.61 1.693 14.65 5.078 4.03 3.385 6.05 7.878 6.05 13.477v.195l.39 180.859c0 5.209-1.95 9.636-5.86 13.281-3.77 3.646-8.33 5.469-13.67 5.469-5.47 0-10.09-1.823-13.87-5.469-3.77-3.776-5.66-8.268-5.66-13.476l-.39-182.617Zm115.62 14.062c7.03-6.901 15.43-13.737 25.2-20.508 9.89-6.77 21.35-10.156 34.37-10.156 17.06 0 31.25 4.557 42.58 13.672 11.33 8.984 19.66 19.466 25 31.445 4.17 9.506 6.64 18.946 7.42 28.321.92 9.244 1.37 17.968 1.37 26.172v98.632c0 5.339-1.95 9.961-5.86 13.868-3.77 3.776-8.33 5.664-13.67 5.664s-9.96-1.888-13.87-5.664c-3.77-3.907-5.66-8.529-5.66-13.868v-98.632c0-7.683-.39-14.779-1.17-21.29-.65-6.51-2.09-12.239-4.3-17.187-2.47-5.729-6.32-10.807-11.52-15.234-5.21-4.558-11.85-6.836-19.93-6.836-19.27 0-34.11 7.356-44.53 22.07-10.28 14.713-15.36 34.57-15.23 59.57l.19 77.93c0 5.338-1.95 9.961-5.86 13.867-3.77 3.776-8.33 5.664-13.67 5.664-5.47 0-10.09-1.888-13.86-5.664-3.78-3.906-5.67-8.594-5.67-14.062l-.39-179.493c0-5.338 1.43-9.895 4.3-13.671 2.99-3.907 7.16-5.86 12.5-5.86s9.44 1.953 12.3 5.86c2.87 3.776 5.08 8.333 6.64 13.671l3.32 11.719Zm350.98-31.64c5.34 0 9.9 1.953 13.67 5.859 3.91 3.776 5.86 8.333 5.86 13.672v.39l-1.37 186.524c-.13 14.583-3.12 28.32-8.98 41.211-5.73 12.89-13.67 24.284-23.83 34.18-10.15 9.895-21.81 17.643-34.96 23.242-13.02 5.599-26.89 8.398-41.6 8.398-16.54 0-32.36-3.646-47.46-10.937-14.98-7.162-27.67-17.253-38.09-30.274-2.99-3.776-4.49-7.943-4.49-12.5 0-5.338 1.89-9.961 5.66-13.867 3.91-3.776 8.53-5.664 13.87-5.664 2.61 0 5.4.716 8.4 2.148 3.12 1.433 5.53 3.256 7.23 5.469 6.51 8.073 14.71 14.518 24.61 19.336 10.02 4.818 20.18 7.227 30.46 7.227 12.63 0 24.22-3.125 34.77-9.375 10.68-6.25 19.21-14.584 25.59-25 6.51-10.417 9.76-21.81 9.76-34.18V397.07c-7.68 11.979-16.99 20.248-27.93 24.805-10.81 4.427-21.87 6.641-33.2 6.641-14.19 0-27.41-3.06-39.65-9.18-12.11-6.12-22.66-14.388-31.64-24.805-8.98-10.416-16.02-22.2-21.09-35.351-4.95-13.282-7.43-26.953-7.43-41.016 0-14.062 2.48-27.474 7.43-40.234 5.07-12.891 12.11-24.349 21.09-34.375s19.53-17.969 31.64-23.828c12.11-5.86 25.33-8.789 39.65-8.789 12.37 0 23.96 2.864 34.76 8.593 10.81 5.729 19.99 14.453 27.54 26.172l2.93-15.625c1.04-5.338 2.74-9.961 5.08-13.867 2.34-3.906 6.25-5.859 11.72-5.859Zm-21.29 108.007c0-11.849-2.6-22.916-7.81-33.203-5.21-10.416-12.37-18.88-21.49-25.39-8.98-6.511-19.27-9.766-30.86-9.766-11.84 0-22.39 3.255-31.64 9.766-9.11 6.38-16.34 14.778-21.68 25.195-5.2 10.286-7.81 21.354-7.81 33.203 0 11.719 2.61 23.047 7.81 33.984 5.21 10.808 12.37 19.727 21.49 26.758 9.11 7.032 19.53 10.547 31.25 10.547 11.59 0 21.94-3.45 31.05-10.351 9.25-6.901 16.47-15.756 21.68-26.563 5.34-10.937 8.01-22.331 8.01-34.18Z"/>
</svg>
