<svg xmlns="http://www.w3.org/2000/svg" width="512" height="512" fill="none" viewBox="0 0 512 512">
  <rect width="512" height="512" fill="#1d1d23" rx="133.12"/>
  <path fill="url(#a)" d="M256 417.667c-22.364 0-43.381-4.247-63.05-12.74-19.669-8.493-36.779-20.009-51.329-34.548-14.55-14.55-26.066-31.66-34.548-51.329-8.482-19.669-12.729-40.686-12.74-63.05 0-22.364 4.247-43.381 12.74-63.05 8.493-19.669 20.009-36.779 34.548-51.329 14.55-14.55 31.66-26.066 51.329-34.548 19.669-8.482 40.686-12.729 63.05-12.74 22.364 0 43.381 4.247 63.05 12.74 19.669 8.493 36.779 20.009 51.329 34.548 14.55 14.55 26.072 31.66 34.565 51.329 8.492 19.669 12.733 40.686 12.723 63.05v23.442c0 15.897-5.454 29.439-16.361 40.626-10.907 11.188-24.315 16.776-40.223 16.765-9.43 0-18.322-2.021-26.675-6.062-8.352-4.042-15.358-9.835-21.016-17.379-7.814 7.814-16.641 13.677-26.481 17.589-9.84 3.912-20.144 5.863-30.911 5.852-22.364 0-41.424-7.884-57.181-23.652-15.758-15.767-23.642-34.828-23.652-57.181 0-22.364 7.884-41.424 23.652-57.182 15.767-15.757 34.828-23.641 57.181-23.651 22.364 0 41.43 7.884 57.198 23.651 15.768 15.768 23.646 34.829 23.635 57.182v23.442c0 7.005 2.291 12.933 6.871 17.783 4.581 4.85 10.374 7.275 17.379 7.275 7.006 0 12.799-2.425 17.38-7.275 4.58-4.85 6.87-10.778 6.87-17.783V256c0-36.106-12.529-66.688-37.587-91.746-25.058-25.058-55.64-37.587-91.746-37.587-36.106 0-66.688 12.529-91.746 37.587-25.058 25.058-37.587 55.64-37.587 91.746 0 36.106 12.529 66.687 37.587 91.746 25.058 25.058 55.64 37.587 91.746 37.587h64.667c4.58 0 8.423 1.552 11.527 4.656 3.104 3.104 4.65 6.941 4.639 11.511 0 4.581-1.552 8.423-4.656 11.527-3.104 3.104-6.941 4.65-11.51 4.64H256Zm0-113.167c13.472 0 24.924-4.715 34.354-14.146 9.431-9.43 14.146-20.882 14.146-34.354 0-13.472-4.715-24.924-14.146-34.354-9.43-9.431-20.882-14.146-34.354-14.146-13.472 0-24.924 4.715-34.354 14.146-9.431 9.43-14.146 20.882-14.146 34.354 0 13.472 4.715 24.924 14.146 34.354 9.43 9.431 20.882 14.146 34.354 14.146Z"/>
  <defs>
    <linearGradient id="a" x1="92.631" x2="429.578" y1="92.633" y2="434.686" gradientUnits="userSpaceOnUse">
      <stop stop-color="#FF9797"/>
      <stop offset="1" stop-color="#6D6AFF"/>
    </linearGradient>
  </defs>
</svg>
